<svg xmlns="http://www.w3.org/2000/svg" width="532" height="532" viewBox="0 0 399 399" preserveAspectRatio="xMidYMid meet" xmlns:v="https://vecta.io/nano"><path d="M185.8 25c-3.6.5-4.1 1-8.8 9.5L171 45a96.4 96.4 0 0 0-3.6 6.5c-1.5 2.7-3 5.1-3.5 5.3s-.9.8-.9 1.2c0 .5-10.9 19.9-24.1 43.2l-31.3 55c-1.2 2-5.7 9.9-10 17.5L51.8 254l-3.7 6.5c-1 1.6-2.9 5-4.3 7.5l-10.5 18.5L22.8 305l-9.5 16.5L5.7 335c-.4.8-1.8 3.3-3.1 5.5S.5 345.1.9 346c.3.9 4.1 7.7 8.4 15.2l7.8 13.6 185.6-.1 185.6-.2 1.3-3.5 5.3-14.8 4.1-11.3-3.1-5.7-3.9-6.7c-.4-.6-2.1-3.5-3.7-6.5-4.2-7.7-35.7-62.9-41-71.8-2.4-4.1-4.3-7.5-4.3-7.8 0-.4-8.3-14.8-10-17.4-.6-.8-1.3-2.2-1.7-3s-2.9-5.3-5.6-10l-7.2-12.5-30.2-53-3.6-6.5c-.4-.8-1.7-3.1-2.8-5l-9.2-16-11.7-20.5-7.2-12.5-4.7-8.3-4.1-7.2-4.1-7.3c-12-21.3-24.2-42.2-24.7-42.3-3.3-.3-27.5-.3-30.4.1z"/></svg>