<svg xmlns="http://www.w3.org/2000/svg" viewBox="0 0 101 22.19" xmlns:v="https://vecta.io/nano"><path d="M87.11 17a2.24 2.24 0 0 1-.11-1.16 1.79 1.79 0 0 1 .38-.95 1.65 1.65 0 0 1 .8-.56 1.58 1.58 0 0 1 1.11.11 2.48 2.48 0 0 1 1 .68 2.82 2.82 0 0 0 1 .72 7.84 7.84 0 0 0 2.66.75h1.14c.39 0 .55-.16.76-.23a2 2 0 0 0 .7-.5A1.72 1.72 0 0 0 97 15a2.28 2.28 0 0 0 0-1 2.34 2.34 0 0 0-.5-.93 1.85 1.85 0 0 0-.89-.57 13.22 13.22 0 0 0-2.05-.54l-2-.46a8.07 8.07 0 0 1-1.83-.74 5.68 5.68 0 0 1-1.59-1.39 2.76 2.76 0 0 1-.53-.88l-.26-1a3.74 3.74 0 0 1 .22-2.37 7.87 7.87 0 0 1 1.23-1.77 6.61 6.61 0 0 1 2.12-1.56 8.55 8.55 0 0 1 2.49-.7 8.94 8.94 0 0 1 2.59.06 10.25 10.25 0 0 1 2.53.74 1.45 1.45 0 0 1 .89.91 2 2 0 0 1 0 1.2 1.88 1.88 0 0 1-.68 1 1.44 1.44 0 0 1-1.17.27l-1.31-.31-1.23-.28a3.37 3.37 0 0 0-1 0 6.36 6.36 0 0 0-1 .19l-.89.29a2.17 2.17 0 0 0-.62.34 3.11 3.11 0 0 0-.42.5 1.42 1.42 0 0 0-.25.73.85.85 0 0 0 .38.82 2.84 2.84 0 0 0 .94.46l2 .4a14 14 0 0 1 2 .53 9.26 9.26 0 0 1 1.83.82 5 5 0 0 1 1.48 1.4 4.75 4.75 0 0 1 1 1.73 5.29 5.29 0 0 1 .22 1.93 5.9 5.9 0 0 1-.45 1.85 5 5 0 0 1-1.06 1.57 6 6 0 0 1-1 .8l-1.09.66a5.33 5.33 0 0 1-2.52.61 9.67 9.67 0 0 1-2.69-.39 10.82 10.82 0 0 1-2.54-1.11 10.54 10.54 0 0 1-2-1.57zM34.81 1.06a2.24 2.24 0 0 1 1 .77 2.32 2.32 0 0 1 .46 1.08 1.44 1.44 0 0 1-.21 1 1.53 1.53 0 0 1-1 .6 13.81 13.81 0 0 1-2.65.21h-2.15q0 3.61 0 7.09 0 3.48 0 7.35a1.35 1.35 0 0 1-.59 1.22 2 2 0 0 1-1.27.31 2.31 2.31 0 0 1-1.27-.54 1.64 1.64 0 0 1-.58-1.32q0-3.54 0-7V4.69h-.93-1.44a15.09 15.09 0 0 1-1.61-.12A4.59 4.59 0 0 1 21 4.21a1.19 1.19 0 0 1-.64-.7 1.54 1.54 0 0 1 0-.95 2.37 2.37 0 0 1 .5-.9 1.85 1.85 0 0 1 .92-.57l5-.1 4.87.01h1.47 1.5zm33.59 18.4l-1.21.43a1.08 1.08 0 0 1-1.48-.69l-1.07-2.89a.22.22 0 0 0-.25-.18q-3.73 0-7.47 0a.25.25 0 0 0-.28.21l-1 2.81a1.09 1.09 0 0 1-1.55.72l-1-.35a1.06 1.06 0 0 1-.7-1.48q1.8-4.89 3.59-9.77l2.49-6.74v-.06h0l.06-.09A1.18 1.18 0 0 1 59.6.85h2.14a1.06 1.06 0 0 1 1.14.8q1.68 4.52 3.34 9L68.9 18a1.08 1.08 0 0 1-.4 1.42s-.08 0-.09.06zm-8.47-8.88a11.21 11.21 0 0 1-.75-1.14l-1.16 3.15c-.07.18 0 .18.14.18h5c.18 0 .23 0 .16-.21q-1.1-3-2.18-5.91c-.14-.38-1.06 4.35-1.21 3.93zm-36.46 9.16l-1.21.42a1.07 1.07 0 0 1-1.48-.68l-1.07-2.9c0-.14-.11-.17-.25-.17H12a.27.27 0 0 0-.29.21l-1 2.81a1.09 1.09 0 0 1-1.55.73l-1-.36a1.05 1.05 0 0 1-.7-1.47L11 8.53q1.25-3.36 2.48-6.74v-.06h0l.06-.09a1.18 1.18 0 0 1 1.08-.53h2.14a1.06 1.06 0 0 1 1.24.8L21.29 11l2.68 7.3a1.07 1.07 0 0 1-.4 1.41s-.08 0-.09.07zM15 10.85a13.12 13.12 0 0 1-.74-1.14l-1.17 3.15c-.06.18 0 .18.14.18h5c.18 0 .23 0 .16-.21l-2.18-5.92c-.21-.37-1.06 4.35-1.21 3.94z" fill="#fff"/><path d="M2.07,20.2a94.4,94.4,0,0,1,24.7-6.62,91.41,91.41,0,0,1,12.81-.77,44.78,44.78,0,0,1,6.44.56,58.42,58.42,0,0,1,6.29,1.43c4.11,1.2,8.11,2.68,12.28,3.36a43,43,0,0,0,12.61.15,53.92,53.92,0,0,0,12.32-3A67.87,67.87,0,0,0,101,9.7a57.62,57.62,0,0,1-23.69,9.38,43.19,43.19,0,0,1-6.43.48,35.57,35.57,0,0,1-6.44-.51c-4.28-.66-8.33-2.13-12.41-3.29a56.94,56.94,0,0,0-6.17-1.45,44.18,44.18,0,0,0-6.29-.59,101.88,101.88,0,0,0-12.71.62A100.54,100.54,0,0,0,14.3,16.52,104.83,104.83,0,0,0,2.07,20.2Z" fill="#003a6b"/><path d="M40.57 18.31a2.3 2.3 0 0 1-1.5 1.84 1.73 1.73 0 0 1-1.1 0 1.47 1.47 0 0 1-.86-.87 4 4 0 0 1-.21-1.19c0-.57-.07-1.17-.09-1.79v-1.72-1-6.25-.9-1.79l.09-1.89a3.13 3.13 0 0 1 .29-1.24 1.69 1.69 0 0 1 .68-.65 1.64 1.64 0 0 1 .81-.17 2.46 2.46 0 0 1 .83.25 1.78 1.78 0 0 1 .68.63 1.59 1.59 0 0 1 .23.36.77.77 0 0 1 .11.39v2.83 2.84a14.06 14.06 0 0 0 2-1.43 18.24 18.24 0 0 0 1.82-1.81l.65-.81.86-1.11.91-1.07a2.79 2.79 0 0 1 .8-.64 2.2 2.2 0 0 1 1.24-.25 1.94 1.94 0 0 1 1 .47 1.72 1.72 0 0 1 .5 1 1.89 1.89 0 0 1-.23 1.22 2.32 2.32 0 0 1-.26.45 3 3 0 0 1-.28.33l-.29.33a3.82 3.82 0 0 0-.3.42 11.32 11.32 0 0 1-1 1.27l-1.16 1.26-1.26 1.19-1.16 1.04 1.53 1.62q.76.81 1.56 1.62l.79.77 1.3 1.29 1.26 1.39a3.07 3.07 0 0 1 .66 1.08 1.81 1.81 0 0 1-.06 1.13 2.09 2.09 0 0 1-.66.86 1.82 1.82 0 0 1-1 .36 1.76 1.76 0 0 1-1.12-.36 4.78 4.78 0 0 1-.5-.44 6 6 0 0 1-.49-.53l-.45-.52-.36-.41-2.85-3-2.85-3-.33.14-.34.13v3.05l.09 3z" fill="#fff"/><path d="M6.67 18.15l.41.75a2.18 2.18 0 0 0 .22.21h0c.12.1 0 .29-.21.24l-.39-.11-.66-.19a.29.29 0 0 0-.16 0L4 20c-.09 0-.13.14-.08.2l.09.09h.15c.05 0 .17 0 .21.07s0 .12-.07.16a.3.3 0 0 0-.11.06l.44.55h.11c.16 0 .25 0 .24.1s0 .07-.06.11a.12.12 0 0 0 0 .15l.21.28v.06c.15.2.17.23 0 .38a.25.25 0 0 1-.22 0l-.41-.23-2.23-1.25a.28.28 0 0 0-.18 0l-1.26.41a1.1 1.1 0 0 1-.57 0 .31.31 0 0 1-.26-.46 1.07 1.07 0 0 1 .55-.47l1.1-.46a.25.25 0 0 0 .17-.16l.82-2.39.12-.35a.21.21 0 0 1 .24-.12h.2v.06c0 .21 0 .43.07.64a.2.2 0 0 0 0 0 .8.8 0 0 1 .22.05c.09.07 0 .17-.09.23s-.11.07-.1.14 0 .42.05.64h.12c.08 0 .14 0 .16.06s0 .13-.06.18-.17.06-.17.1a.57.57 0 0 0 0 .13.14.14 0 0 0 .2.11l.21-.07 1.63-.47h.06a.43.43 0 0 0 .34-.22l.54-.84c.18-.27.29-.12.31 0v.08a5.24 5.24 0 0 0 0 .57z" fill="#003a6b"/><path d="M82.21 1.51a2.29 2.29 0 0 1 .57-1 1.83 1.83 0 0 1 .86-.49 1.55 1.55 0 0 1 1 .06 1.69 1.69 0 0 1 .84.7 2.13 2.13 0 0 1 .22.35.94.94 0 0 1 .1.38q.06 4.19 0 8.35l-.33 8.34a1.34 1.34 0 0 1-.43 1.06 2 2 0 0 1-1 .48 1.92 1.92 0 0 1-1.1-.12 1.49 1.49 0 0 1-.82-.74.07.07 0 0 1 0-.06v.06q-1.91-3.13-4-6l-4.39-5.72V16v1.48c0 .38 0 .67-.07.89a2.47 2.47 0 0 1-.13.55 1.56 1.56 0 0 1-.8.94 1.75 1.75 0 0 1-1.1.12 1.81 1.81 0 0 1-1-.59 1.72 1.72 0 0 1-.41-1.17v-8.11-2.3-1.8-2-2a1.43 1.43 0 0 1 .24-.84A1.63 1.63 0 0 1 71 .68a2.13 2.13 0 0 1 .82-.22 2.21 2.21 0 0 1 .85.11 2 2 0 0 1 .72.49 9.21 9.21 0 0 1 .71.79q.36.42.66.84l.51.69L77 5.53l1.84 2.29 1.65 2.23 1.57 2.22.11-5.29v-5.3z" fill="#fff"/></svg>